<svg width="30" height="30" viewBox="0 0 30 30" fill="none" xmlns="http://www.w3.org/2000/svg">
<g clip-path="url(#clip0_1_362)">
<g clip-path="url(#clip1_1_362)">
<path d="M1.25 14.1396V7.81152C1.25 6.08564 2.64911 4.68652 4.375 4.68652H7.26562H8.76953M25.3125 9.41309V7.81152C25.3125 6.08564 23.9134 4.68652 22.1875 4.68652H19.2969" stroke="white" stroke-width="1.875"/>
<path d="M1.25 16.7178H5.54688C6.97074 16.7178 8.125 17.872 8.125 19.2959C8.125 20.7198 6.97074 21.874 5.54688 21.874H1.25V16.7178Z" stroke="#F4B618" stroke-width="1.875"/>
<path d="M6.40625 8.9834L8.84193 1.67638C8.927 1.42117 9.16583 1.24902 9.43485 1.24902H19.3276C19.7429 1.24902 20.0428 1.64646 19.9286 2.04572L18.4375 7.26465L17.5781 9.84277" stroke="#F4B618" stroke-width="1.875" stroke-linecap="round"/>
<path d="M19.2969 28.749H4.75C2.817 28.749 1.25 27.182 1.25 25.249V13.3428C1.25 11.4098 2.817 9.84277 4.75 9.84277H25.25C27.183 9.84277 28.75 11.4098 28.75 13.3428V25.249C28.75 27.182 27.183 28.749 25.25 28.749H21.0361H18.8046" stroke="white" stroke-width="1.875"/>
</g>
</g>
<defs>
<clipPath id="clip0_1_362">
<rect width="30" height="30" fill="white"/>
</clipPath>
<clipPath id="clip1_1_362">
<rect width="30" height="30" fill="white"/>
</clipPath>
</defs>
</svg>
