<svg width="30" height="28" viewBox="0 0 30 28" fill="none" xmlns="http://www.w3.org/2000/svg">
<g clip-path="url(#clip0_1_384)">
<path d="M6.38268 18.4506C4.88872 18.7371 3.4454 17.7582 3.15893 16.2643L1.57978 8.0288C1.27853 6.4577 2.30587 4.94025 3.87697 4.639C6.17181 4.19896 9.40969 3.5781 11.8545 3.10931C14.3263 2.63535 17.6202 2.0663 19.9287 1.67559C21.4762 1.41367 22.9439 2.4389 23.2396 3.98038C23.3534 4.57407 23.4764 5.21567 23.599 5.85461" stroke="#F4B618" stroke-width="1.55172" stroke-linecap="round"/>
<path d="M6.54297 10.3986V20.3143C6.54297 21.8355 7.77612 23.0686 9.2973 23.0686H9.63136C10.2074 23.0686 10.6744 23.5356 10.6744 24.1117C10.6744 25.2473 10.7703 26.9274 11.9055 26.8955C12.6756 26.874 12.9509 25.9325 13.3698 25.2859L13.9497 24.3904C14.4836 23.5662 15.3988 23.0686 16.381 23.0686H24.7216C26.8512 23.0686 28.5776 21.3424 28.5776 19.2128V10.4904C28.5776 8.40802 27.2164 6.59283 25.1346 6.54261C22.8916 6.48848 19.7641 6.54262 17.5603 6.54262H10.3984C8.26882 6.54262 6.54297 8.26903 6.54297 10.3986Z" stroke="white" stroke-width="1.55172" stroke-linecap="round"/>
<path d="M12.0515 16.1821C12.8121 16.1821 13.4286 15.5655 13.4286 14.8049C13.4286 14.0443 12.8121 13.4277 12.0515 13.4277C11.2909 13.4277 10.6743 14.0443 10.6743 14.8049C10.6743 15.5655 11.2909 16.1821 12.0515 16.1821Z" fill="#F4B618"/>
<path d="M17.5603 16.1821C18.3209 16.1821 18.9374 15.5655 18.9374 14.8049C18.9374 14.0443 18.3209 13.4277 17.5603 13.4277C16.7997 13.4277 16.1831 14.0443 16.1831 14.8049C16.1831 15.5655 16.7997 16.1821 17.5603 16.1821Z" fill="#F4B618"/>
<path d="M23.0691 16.1821C23.8296 16.1821 24.4462 15.5655 24.4462 14.8049C24.4462 14.0443 23.8296 13.4277 23.0691 13.4277C22.3085 13.4277 21.6919 14.0443 21.6919 14.8049C21.6919 15.5655 22.3085 16.1821 23.0691 16.1821Z" fill="#F4B618"/>
</g>
<defs>
<clipPath id="clip0_1_384">
<rect width="30" height="27.931" fill="white"/>
</clipPath>
</defs>
</svg>
