<svg width="30" height="30" viewBox="0 0 30 30" fill="none" xmlns="http://www.w3.org/2000/svg">
<g clip-path="url(#clip0_1_372)">
<g clip-path="url(#clip1_1_372)">
<path fill-rule="evenodd" clip-rule="evenodd" d="M17.2077 12.8293C17.8828 12.8293 18.4301 12.2822 18.4301 11.607C18.4301 10.932 17.8828 10.3848 17.2077 10.3848C16.5327 10.3848 15.9854 10.932 15.9854 11.607C15.9854 12.2822 16.5327 12.8293 17.2077 12.8293ZM9.43497 10.77C9.7435 10.405 10.2895 10.3592 10.6545 10.6677L11.238 11.1609C11.603 11.4694 11.6487 12.0155 11.3402 12.3805C11.0317 12.7454 10.4856 12.7912 10.1206 12.4827L9.53722 11.9895C9.17221 11.681 9.12643 11.135 9.43497 10.77ZM12.425 13.2974C12.7336 12.9325 13.2796 12.8867 13.6446 13.1952L13.8634 13.3802L14.7385 14.1199L15.322 14.613L19.9893 18.5583C20.3544 18.8668 20.4 19.4128 20.0915 19.7779C19.783 20.1428 19.237 20.1887 18.872 19.8801L14.2046 15.9349L13.6212 15.4416L12.7461 14.7019L12.5273 14.517C12.1623 14.2085 12.1165 13.6625 12.425 13.2974ZM13.5409 18.9408C13.5409 19.6159 12.9936 20.163 12.3186 20.163C11.6435 20.163 11.0963 19.6159 11.0963 18.9408C11.0963 18.2658 11.6435 17.7185 12.3186 17.7185C12.9936 17.7185 13.5409 18.2658 13.5409 18.9408Z" fill="white"/>
<path d="M3.46094 18.7502V8.59302C3.46094 5.89327 5.7284 3.77892 8.35232 4.03189L9.63313 4.15537C10.7266 4.2608 11.7709 3.66711 12.2621 2.66083C13.2425 0.65212 16.0409 0.65212 17.0214 2.66083C17.5125 3.66711 18.5568 4.2608 19.6503 4.15537L20.9311 4.03189C23.5551 3.77892 25.8225 5.89328 25.8225 8.59302V18.7502C25.8225 20.1032 25.2386 21.3871 24.2274 22.2576L17.5189 28.0322C15.8554 29.4643 13.428 29.4643 11.7645 28.0322L5.05601 22.2576C4.04481 21.3871 3.46094 20.1032 3.46094 18.7502Z" stroke="white" stroke-width="1.73077" stroke-linecap="round"/>
<path d="M3.46094 8.59302C3.46094 5.89327 5.7284 3.77892 8.35232 4.03189L9.63313 4.15537C10.7266 4.2608 11.7709 3.66711 12.2621 2.66083C13.2425 0.65212 16.0409 0.65212 17.0214 2.66083C17.5125 3.66711 18.5568 4.2608 19.6503 4.15537L20.9311 4.03189C23.5551 3.77892 25.8225 5.89328 25.8225 8.59302" stroke="#F4B618" stroke-width="1.73077" stroke-linecap="square"/>
</g>
</g>
<defs>
<clipPath id="clip0_1_372">
<rect width="30" height="30" fill="white"/>
</clipPath>
<clipPath id="clip1_1_372">
<rect width="25.3846" height="30" fill="white" transform="translate(2.30762)"/>
</clipPath>
</defs>
</svg>
