<svg width="42" height="43" viewBox="0 0 42 43" fill="none" xmlns="http://www.w3.org/2000/svg">
<path d="M9.90893 0.120129C9.76283 0.231848 9.74565 0.369348 9.71986 1.43497C9.69408 2.54357 9.70268 2.6381 9.87455 2.86154C10.1066 3.15372 10.5621 3.1795 10.8199 2.92169C10.9746 2.767 10.9917 2.6381 10.9917 1.56388C10.9917 0.171691 10.923 -0.000183582 10.3988 -0.000183582C10.2269 -0.000183582 10.0035 0.051379 9.90893 0.120129Z" fill="#333333"/>
<path d="M19.1556 0.0603466C18.4079 0.137691 16.4486 0.533003 15.8212 0.730659C15.2369 0.911129 15.1251 0.979879 15.0306 1.19472C14.8501 1.6416 15.1079 2.06269 15.572 2.06269C15.7267 2.06269 16.2939 1.95097 16.8439 1.81347C18.3306 1.43535 19.5939 1.28066 21.2611 1.28066C24.9134 1.28066 28.2564 2.28613 31.2728 4.27128C38.9642 9.3416 41.654 19.2932 37.5806 27.5603C37.2712 28.1877 37.022 28.7291 37.022 28.7549C37.022 28.7893 37.2884 28.8838 37.6064 28.9697C38.3197 29.1502 38.2423 29.2103 38.8954 27.8611C39.7204 26.1338 40.3736 23.908 40.6486 21.8283C40.8033 20.6424 40.7775 18.0557 40.597 16.801C39.8408 11.5158 37.0908 6.89238 32.8626 3.78144C30.1556 1.78769 27.122 0.567379 23.7619 0.120504C22.9025 0.00878525 19.9978 -0.0255909 19.1556 0.0603466Z" fill="#333333"/>
<path d="M6.35107 3.69531C6.24795 3.79844 6.1792 3.97891 6.1792 4.16797C6.1792 4.35703 6.24795 4.5375 6.35107 4.64062C6.50576 4.79531 6.63467 4.8125 7.72607 4.8125C8.81748 4.8125 8.94639 4.79531 9.10107 4.64062C9.2042 4.5375 9.27295 4.35703 9.27295 4.16797C9.27295 3.97891 9.2042 3.79844 9.10107 3.69531C8.94639 3.54062 8.81748 3.52344 7.72607 3.52344C6.63467 3.52344 6.50576 3.54062 6.35107 3.69531Z" fill="#333333"/>
<path d="M11.6446 3.70391C11.3524 3.93594 11.3353 4.36562 11.6189 4.62344C11.8079 4.79531 11.9024 4.8125 13.0024 4.8125C14.1368 4.8125 14.1884 4.80391 14.386 4.59766C14.5064 4.48594 14.6009 4.28828 14.6009 4.16797C14.6009 4.04766 14.5064 3.85 14.386 3.73828C14.1884 3.53203 14.1368 3.52344 13.0282 3.52344C11.9884 3.52344 11.8509 3.54062 11.6446 3.70391Z" fill="#333333"/>
<path d="M9.88311 5.46555C9.71982 5.6718 9.70264 5.8093 9.70264 6.80618C9.70264 7.41633 9.73701 7.99211 9.78857 8.07805C9.90029 8.2929 10.3472 8.4304 10.605 8.33586C10.9401 8.20696 10.9917 7.98352 10.9917 6.75461C10.9917 5.69758 10.9745 5.56868 10.8198 5.41399C10.562 5.15618 10.1065 5.18196 9.88311 5.46555Z" fill="#333333"/>
<path d="M6.36816 6.87481C6.02441 7.19277 5.10487 8.46465 4.56347 9.36699C-0.0771568 17.067 1.10019 26.9068 7.41659 33.2232C9.46191 35.2686 11.533 36.6264 14.2057 37.6748C16.44 38.56 18.6572 38.9639 21.2611 38.9639C23.1689 38.9639 24.2518 38.835 25.9877 38.4139C26.8213 38.2076 28.815 37.5459 28.9182 37.4428C28.9353 37.4342 28.8924 37.1248 28.8408 36.7639L28.7377 36.1107L28.2221 36.317C23.1603 38.3881 17.4971 38.1131 12.7189 35.5693C10.5275 34.4006 8.25019 32.467 6.76347 30.5076C4.88144 28.0326 3.70409 25.2053 3.20566 21.9998C3.01659 20.7537 3.01659 18.3131 3.20566 16.9811C3.66112 13.8443 4.95019 10.7678 6.84941 8.34434C7.29628 7.76855 7.41659 7.55371 7.41659 7.32168C7.41659 6.78027 6.77206 6.50527 6.36816 6.87481Z" fill="#333333"/>
<path d="M20.0667 9.41865C19.1558 9.64209 18.4769 10.0288 17.7808 10.7335C16.7237 11.7905 16.3198 12.7874 16.3198 14.2741C16.3198 15.7179 16.7409 16.7491 17.7292 17.746C19.6886 19.7312 22.8339 19.7312 24.7933 17.746C25.7815 16.7491 26.2026 15.7179 26.2026 14.2741C26.2026 12.7874 25.7901 11.7905 24.7417 10.7421C24.0284 10.0202 23.3495 9.6335 22.4128 9.41006C21.7339 9.25537 20.737 9.25537 20.0667 9.41865Z" fill="#333333"/>
<path d="M7.05588 14.008C6.34259 14.1541 5.63791 14.7729 5.36291 15.4947C5.14806 16.0619 5.21681 17.0416 5.50041 17.5143C5.61213 17.7033 7.76056 20.2557 10.2613 23.1947C13.0028 26.4088 14.8934 28.6947 15.0051 28.944C15.1942 29.3393 15.2028 29.4166 15.2028 32.4244V35.4924L15.4434 35.5869C16.5863 36.0252 18.3996 36.4033 19.9981 36.5322C22.0606 36.7041 24.4754 36.4205 26.5035 35.776L27.277 35.5268L27.3199 32.3557C27.3543 29.5283 27.3801 29.1416 27.5176 28.8752C27.6035 28.7119 29.7778 26.108 32.3473 23.0916C37.3918 17.1619 37.2887 17.308 37.2887 16.294C37.2887 15.6236 37.0223 15.0307 36.5153 14.5838C36.0082 14.1197 35.6387 13.9822 34.9254 13.9822C34.2637 13.9908 33.8598 14.1283 33.4215 14.4893C33.2754 14.6182 31.7973 16.3197 30.1473 18.2705C28.5059 20.2213 27.0621 21.8971 26.959 22.0002C26.8473 22.1033 26.6067 22.2666 26.4176 22.3697C26.0738 22.5588 26.0309 22.5588 21.2613 22.5588H16.4488L16.002 22.301C15.6324 22.0862 15.0309 21.4244 12.6246 18.5627C11.009 16.6463 9.53088 14.919 9.33322 14.7213C8.74025 14.1026 7.89806 13.8447 7.05588 14.008Z" fill="#333333"/>
<path d="M35.1828 29.9062C33.9109 30.0523 32.7852 30.5766 31.8312 31.4703C30.6281 32.5961 29.9922 33.9539 29.9234 35.5781C29.8719 36.7555 30.0266 37.5203 30.5508 38.5859C30.8859 39.2562 31.075 39.5227 31.6508 40.0898C32.4328 40.8547 33.0172 41.2414 33.9539 41.5766C34.5211 41.7828 34.7016 41.8 35.8703 41.8086C36.9961 41.8086 37.2367 41.7828 37.7609 41.6109C39.1359 41.1555 40.5539 39.9867 41.1727 38.8008C42.1352 36.9445 42.1695 35.0367 41.2672 33.1719C40.9406 32.493 40.7602 32.2437 40.1328 31.625C39.5484 31.0406 39.2477 30.8172 38.6633 30.525C37.5719 29.9922 36.3258 29.7688 35.1828 29.9062ZM39.6086 33.6016C39.7805 33.7734 39.832 34.0828 39.7117 34.2547C39.6172 34.3922 34.9594 38.5859 34.7359 38.732C34.6242 38.8094 34.4523 38.8438 34.332 38.8094C34.0828 38.7492 31.6164 35.7242 31.6164 35.475C31.6164 35.3031 31.9773 34.8906 32.132 34.8906C32.3555 34.8906 32.5961 35.1227 33.5156 36.2656C34.0484 36.9273 34.5125 37.4688 34.5383 37.4688C34.5641 37.4602 35.5867 36.5578 36.8156 35.4492C38.3539 34.057 39.1016 33.4297 39.2391 33.4297C39.3508 33.4297 39.5141 33.507 39.6086 33.6016Z" fill="#333333"/>
<path d="M4.03076 34.0914C3.62686 34.2375 3.60107 34.3406 3.60107 35.6727C3.60107 36.8844 3.60967 36.9531 3.79014 37.0734C4.04795 37.2539 4.40029 37.2453 4.64092 37.0477C4.83857 36.8844 4.84717 36.8414 4.84717 35.6727C4.84717 34.5812 4.82998 34.4523 4.67529 34.2977C4.47764 34.1086 4.21982 34.0227 4.03076 34.0914Z" fill="#333333"/>
<path d="M0.180684 37.8383C-0.0685352 38.1047 -0.0599414 38.457 0.206465 38.7148C0.404121 38.9211 0.455684 38.9297 1.58146 38.9297C2.70725 38.9297 2.75881 38.9211 2.95646 38.7148C3.07678 38.6031 3.17131 38.4055 3.17131 38.2852C3.17131 38.1648 3.07678 37.9672 2.95646 37.8555C2.75881 37.6492 2.70725 37.6406 1.55568 37.6406C0.421309 37.6406 0.352559 37.6492 0.180684 37.8383Z" fill="#333333"/>
<path d="M5.43153 37.8641C5.25966 38.0359 5.22528 38.1305 5.26825 38.3539C5.36278 38.8609 5.54325 38.9297 6.82372 38.9297C7.84638 38.9297 7.98388 38.9125 8.19013 38.7492C8.48231 38.5172 8.4995 38.0875 8.21591 37.8297C8.02685 37.6578 7.93231 37.6406 6.83231 37.6406C5.68075 37.6406 5.64638 37.6492 5.43153 37.8641Z" fill="#333333"/>
<path d="M3.74717 39.5141C3.62686 39.6516 3.60107 39.8836 3.60107 40.9234C3.60107 42.3328 3.65264 42.4531 4.21982 42.4531C4.76982 42.4531 4.84717 42.2727 4.84717 40.9062C4.84717 39.8578 4.82998 39.7031 4.68389 39.5398C4.46904 39.3078 3.94482 39.2906 3.74717 39.5141Z" fill="#333333"/>
</svg>
