<svg width="40" height="40" viewBox="0 0 40 40" fill="none" xmlns="http://www.w3.org/2000/svg">
<path d="M17.832 0.0461273C13.9563 0.475815 10.2781 1.99691 7.29609 4.40316C6.4625 5.07347 4.95859 6.58597 4.28828 7.41957C2.24297 9.9891 0.842188 13.0914 0.20625 16.486C0.0257813 17.4485 0 17.8008 0 19.9235C0 22.4844 0.0601563 23 0.567187 24.968C1.22891 27.5547 2.62109 30.3391 4.29688 32.4274C4.95859 33.2524 6.47969 34.7821 7.30469 35.4438C9.95156 37.5836 13.0797 39.0016 16.5 39.6118C17.4969 39.7922 17.875 39.818 19.9375 39.818C22 39.8094 22.3781 39.7922 23.332 39.6118C27.4313 38.8469 30.8773 37.0852 33.7648 34.2836C36.8672 31.2672 38.818 27.5977 39.5742 23.361C39.7289 22.5016 39.7719 21.8657 39.8063 20.1813C39.8406 17.8782 39.8234 17.7493 39.368 17.5258C39.1531 17.4227 39.0414 17.4313 38.4141 17.6032C37.5031 17.8524 36.2828 17.818 35.4922 17.5344C34.1945 17.0618 33.0773 15.936 32.5961 14.6383C32.4586 14.2602 32.407 13.8735 32.3813 13.1774C32.3641 12.6532 32.3297 12.1461 32.3039 12.043C32.2523 11.7938 31.9172 11.6305 31.3586 11.5532C30.7656 11.4758 29.7945 11.1407 29.193 10.8055C28.5828 10.4532 27.3367 9.20707 26.9586 8.56253C26.4344 7.66879 26.2367 6.94691 26.1938 5.74379C26.1594 4.85863 26.1852 4.54926 26.3227 3.99925C26.6148 2.88206 26.3313 2.52113 25.2656 2.65004C23.5555 2.85629 21.9828 2.14301 20.8398 0.656284L20.3586 0.0289421L19.2414 0.0203476C18.6313 0.0117531 17.9953 0.0289421 17.832 0.0461273ZM12.0742 3.68129C12.1687 3.77582 12.2461 3.96488 12.2461 4.11097C12.2461 4.25706 12.1687 4.44613 12.0742 4.54066C11.9797 4.63519 11.7906 4.71254 11.6445 4.71254C11.4984 4.71254 11.3094 4.63519 11.2148 4.54066C11.1203 4.44613 11.043 4.25706 11.043 4.11097C11.043 3.96488 11.1203 3.77582 11.2148 3.68129C11.3094 3.58675 11.4984 3.50941 11.6445 3.50941C11.7906 3.50941 11.9797 3.58675 12.0742 3.68129ZM9.86563 5.15941C10.1406 5.52894 10.0117 5.74379 9.04922 6.543C6.75469 8.42504 5.06172 10.6852 4.00469 13.2633C3.80703 13.736 3.58359 14.1743 3.50625 14.2258C3.1625 14.4836 2.65547 14.3118 2.50938 13.8821C2.38047 13.5383 3.47188 11.2352 4.46875 9.73988C5.60313 8.02972 6.85781 6.66331 8.40469 5.43441C9.00625 4.96175 9.15234 4.88441 9.40156 4.9016C9.59922 4.91879 9.74531 5.00472 9.86563 5.15941ZM20.118 8.02113C21.1063 8.51097 21.1836 9.58519 20.3156 11.0289C19.9117 11.725 18.7945 12.8766 18.2703 13.1688C17.1273 13.7875 16.0703 13.418 15.4086 12.1633C15.2453 11.8625 15.2109 11.6649 15.2109 10.986C15.2109 10.2383 15.2367 10.1266 15.4688 9.7055C16.2508 8.28753 18.8031 7.35941 20.118 8.02113ZM9.32422 12.6188C9.41875 12.7133 9.49609 12.9024 9.49609 13.0485C9.49609 13.1946 9.41875 13.3836 9.32422 13.4782C8.95469 13.8477 8.29297 13.5727 8.29297 13.0485C8.29297 12.7219 8.56797 12.4469 8.89453 12.4469C9.04063 12.4469 9.22969 12.5243 9.32422 12.6188ZM22.3867 17.4313C22.4813 17.5258 22.5586 17.7149 22.5586 17.861C22.5586 18.0071 22.4813 18.1961 22.3867 18.2907C22.2922 18.3852 22.1031 18.4625 21.957 18.4625C21.8109 18.4625 21.6219 18.3852 21.5273 18.2907C21.4328 18.1961 21.3555 18.0071 21.3555 17.861C21.3555 17.7149 21.4328 17.5258 21.5273 17.4313C21.6219 17.3368 21.8109 17.2594 21.957 17.2594C22.1031 17.2594 22.2922 17.3368 22.3867 17.4313ZM29.2617 17.4313C29.3563 17.5258 29.4336 17.7149 29.4336 17.861C29.4336 18.0071 29.3563 18.1961 29.2617 18.2907C29.1672 18.3852 28.9781 18.4625 28.832 18.4625C28.6859 18.4625 28.4969 18.3852 28.4023 18.2907C28.3078 18.1961 28.2305 18.0071 28.2305 17.861C28.2305 17.7149 28.3078 17.5258 28.4023 17.4313C28.4969 17.3368 28.6859 17.2594 28.832 17.2594C28.9781 17.2594 29.1672 17.3368 29.2617 17.4313ZM9.96875 18.1618C10.5531 18.4196 10.957 18.7891 11.2664 19.3391C11.4898 19.7516 11.5156 19.8719 11.5156 20.611C11.5156 21.35 11.4898 21.4703 11.2664 21.8828C10.768 22.7766 10.0719 23.1977 9.01484 23.2578C8.39609 23.2922 8.25 23.2664 7.84609 23.086C7.20156 22.7852 6.79766 22.4071 6.48828 21.7969C6.26484 21.35 6.23047 21.1782 6.23047 20.611C6.23047 20.0438 6.26484 19.8719 6.48828 19.425C7.15 18.1016 8.63672 17.5688 9.96875 18.1618ZM28.7289 22.3727C29.2359 22.6477 29.5969 23.0172 29.8805 23.5586C30.0523 23.868 30.0781 24.0485 30.0781 24.7789C30.0781 25.5696 30.0523 25.6899 29.8031 26.2227C29.4852 26.9016 28.7891 27.6664 28.282 27.9157C27.8523 28.1219 27.1305 28.1477 26.7867 27.9672C25.9703 27.5375 25.4805 26.343 25.4805 24.7789C25.4805 23.6961 25.6352 23.1289 26.0648 22.6563C26.5117 22.1578 26.7695 22.0633 27.5859 22.0977C28.1531 22.1235 28.3594 22.1664 28.7289 22.3727ZM18.2617 22.9313C18.3563 23.0258 18.4336 23.2149 18.4336 23.361C18.4336 23.5071 18.3563 23.6961 18.2617 23.7907C18.1672 23.8852 17.9781 23.9625 17.832 23.9625C17.6859 23.9625 17.4969 23.8852 17.4023 23.7907C17.3078 23.6961 17.2305 23.5071 17.2305 23.361C17.2305 23.2149 17.3078 23.0258 17.4023 22.9313C17.4969 22.8368 17.6859 22.7594 17.832 22.7594C17.9781 22.7594 18.1672 22.8368 18.2617 22.9313ZM10.6992 29.8063C10.7937 29.9008 10.8711 30.0899 10.8711 30.236C10.8711 30.3821 10.7937 30.5711 10.6992 30.6657C10.6047 30.7602 10.4156 30.8375 10.2695 30.8375C10.1234 30.8375 9.93437 30.7602 9.83984 30.6657C9.74531 30.5711 9.66797 30.3821 9.66797 30.236C9.66797 30.0899 9.74531 29.9008 9.83984 29.8063C9.93437 29.7118 10.1234 29.6344 10.2695 29.6344C10.4156 29.6344 10.6047 29.7118 10.6992 29.8063ZM17.9008 29.7719C19.1898 30.3047 19.5336 32.0407 18.5539 33.0203C17.8062 33.768 16.5516 33.7766 15.7781 33.0461C14.4977 31.8258 15.357 29.643 17.1273 29.6344C17.3766 29.6344 17.7203 29.6946 17.9008 29.7719ZM27.1992 31.8688C27.2938 31.9633 27.3711 32.1524 27.3711 32.2985C27.3711 32.4446 27.2938 32.6336 27.1992 32.7282C26.8297 33.0977 26.168 32.8227 26.168 32.2985C26.168 31.9719 26.443 31.6969 26.7695 31.6969C26.9156 31.6969 27.1047 31.7743 27.1992 31.8688Z" fill="#333333"/>
<path d="M32.0977 0.295349C31.1781 0.450037 30.293 0.604724 30.1383 0.630505C29.9836 0.656286 29.7773 0.759411 29.6828 0.853942C29.5281 1.00863 29.5195 1.15472 29.5195 3.42347C29.5195 5.718 29.5281 5.83832 29.6914 6.0016C29.8031 6.11332 29.975 6.17347 30.1813 6.17347C30.6023 6.17347 34.65 4.82425 34.8563 4.618C35.0109 4.46332 35.0195 4.29144 35.0195 2.39222C35.0195 0.441442 35.0109 0.32113 34.8477 0.157849C34.607 -0.0827761 34.1344 -0.0569949 32.0977 0.295349Z" fill="#333333"/>
<path d="M30.3789 7.72035C30.2672 7.83207 30.207 8.00394 30.207 8.23597C30.207 8.468 30.2672 8.63988 30.3789 8.7516C30.4906 8.86332 30.6625 8.92347 30.8945 8.92347C31.1266 8.92347 31.2984 8.86332 31.4102 8.7516C31.5219 8.63988 31.582 8.468 31.582 8.23597C31.582 8.00394 31.5219 7.83207 31.4102 7.72035C31.2984 7.60863 31.1266 7.54847 30.8945 7.54847C30.6625 7.54847 30.4906 7.60863 30.3789 7.72035Z" fill="#333333"/>
<path d="M35.1742 9.07811C33.6961 10.5476 33.6445 10.6164 33.6445 10.9515C33.6445 11.1406 33.6961 11.364 33.7563 11.4414C33.8078 11.5187 34.9852 12.2234 36.3516 13.0055C39.0242 14.5265 39.282 14.6297 39.6602 14.2515C39.8234 14.0883 39.832 13.968 39.832 11.3297C39.832 8.75155 39.8234 8.57108 39.6688 8.41639C39.4539 8.20155 37.4773 7.54842 37.0391 7.54842C36.7125 7.54842 36.6352 7.60858 35.1742 9.07811Z" fill="#333333"/>
</svg>
