<svg width="44" height="37" viewBox="0 0 44 37" fill="none" xmlns="http://www.w3.org/2000/svg">
<path d="M10.0201 0.111864C7.39043 0.541552 5.16465 1.67593 3.35996 3.5064C1.70137 5.18218 0.524023 7.4853 0.137305 9.77124C-0.0431641 10.8283 -0.0431641 12.7705 0.137305 13.8275C0.566992 16.3884 1.99355 18.9751 3.91855 20.6595L4.46855 21.1408L5.88652 20.6423C6.66855 20.3587 7.30449 20.1181 7.30449 20.0923C7.30449 20.0666 7.0209 19.8775 6.68574 19.6626C3.84121 17.8666 2.09668 14.24 2.4834 10.94C2.74121 8.73139 3.5834 6.91811 5.0959 5.33686C6.26465 4.12514 7.82012 3.21421 9.51309 2.75874C10.2521 2.56108 10.5271 2.5353 11.7732 2.52671C13.0021 2.51811 13.2943 2.54389 13.9561 2.72436C16.7834 3.46343 18.9662 5.22514 20.1951 7.75171C20.8139 9.01499 21.0545 9.99468 21.1146 11.4126C21.1662 12.7017 21.0889 13.3892 20.7537 14.5494C20.6334 14.9619 20.5475 15.3142 20.5646 15.34C20.5818 15.3572 21.2178 15.1423 21.9826 14.8759L23.3576 14.3775L23.4521 13.733C23.7873 11.3697 23.5467 9.30718 22.7045 7.25327C21.424 4.15093 18.7342 1.64155 15.5545 0.601707C13.8959 0.0517063 11.6186 -0.145948 10.0201 0.111864Z" fill="#333333"/>
<path d="M30.2326 0.112036C30.1037 0.180787 29.9576 0.318287 29.9061 0.412818C29.7943 0.619068 29.7943 2.61282 29.9061 2.82766C30.1553 3.28313 30.9459 3.35188 31.2811 2.93079C31.4357 2.73313 31.4529 2.58704 31.4529 1.60735C31.4529 0.593287 31.4357 0.490162 31.2639 0.283911C31.0232 0.00891161 30.5506 -0.0684321 30.2326 0.112036Z" fill="#333333"/>
<path d="M27.0103 3.29165C26.7181 3.4979 26.6063 3.94477 26.761 4.31431C26.9329 4.7354 27.1478 4.79556 28.3595 4.79556C29.2962 4.79556 29.3993 4.77837 29.6056 4.5979C29.7603 4.46899 29.8462 4.28852 29.8806 4.0479C29.9235 3.72993 29.8978 3.66118 29.6657 3.42056L29.4079 3.16274H28.2993C27.4571 3.16274 27.1478 3.19712 27.0103 3.29165Z" fill="#333333"/>
<path d="M31.6851 3.33462C31.264 3.66977 31.3327 4.4604 31.7882 4.70962C31.8827 4.75259 32.4241 4.79556 32.9999 4.79556C33.5757 4.79556 34.1171 4.75259 34.2116 4.70962C34.6671 4.4604 34.7359 3.66977 34.3148 3.33462C34.1171 3.17993 33.971 3.16274 32.9999 3.16274C32.0288 3.16274 31.8827 3.17993 31.6851 3.33462Z" fill="#333333"/>
<path d="M10.2867 4.07339C9.16953 4.27104 7.91484 4.83823 6.99531 5.54292L6.74609 5.73198L8.46484 7.45932L10.1922 9.18667L10.5961 9.0062L11 8.82573V6.38511C11 5.03589 10.9914 3.93589 10.9828 3.94448C10.9656 3.94448 10.6562 4.00464 10.2867 4.07339Z" fill="#333333"/>
<path d="M12.5641 6.40268L12.5898 8.84331L13.0023 9.02378L13.4234 9.20425L15.0906 7.53706C16.0102 6.62612 16.7578 5.8269 16.7578 5.76675C16.7578 5.62925 16.0445 5.13081 15.3398 4.76987C14.6523 4.42612 13.7758 4.14253 13.0367 4.0394L12.5469 3.96206L12.5641 6.40268Z" fill="#333333"/>
<path d="M30.2844 4.79563C29.8977 4.95032 29.8203 5.19954 29.8203 6.27376C29.8203 6.82376 29.8547 7.37376 29.9062 7.50266C30.0266 7.82063 30.5164 8.00969 30.9031 7.88938C31.393 7.7261 31.4531 7.55422 31.4531 6.31672V5.20813L31.2039 4.95891C30.9461 4.7011 30.6453 4.64954 30.2844 4.79563Z" fill="#333333"/>
<path d="M5.19063 7.46821C4.56328 8.41352 3.95312 10.0721 3.95312 10.8284V11.069H6.38516H8.80859L8.97188 10.6307L9.12656 10.1838L7.46797 8.52524C6.54844 7.60571 5.75781 6.85806 5.69766 6.85806C5.64609 6.85806 5.41406 7.13305 5.19063 7.46821Z" fill="#333333"/>
<path d="M16.0788 8.52524L14.4116 10.1924L14.5921 10.6135L14.7726 11.026L17.2218 11.0518L19.6796 11.069L19.628 10.794C19.4819 9.95181 19.2069 9.04946 18.9062 8.41352C18.528 7.6229 18.0038 6.85806 17.8491 6.85806C17.789 6.85806 16.9897 7.60571 16.0788 8.52524Z" fill="#333333"/>
<path d="M11.1718 10.3472C10.5445 10.6222 10.2093 11.1207 10.1921 11.7996C10.1835 12.3582 10.4327 12.8394 10.8968 13.166C11.189 13.3722 11.3351 13.4152 11.7476 13.4152C12.4952 13.4152 12.9937 13.0972 13.2773 12.4269C13.8187 11.1292 12.4609 9.78862 11.1718 10.3472Z" fill="#333333"/>
<path d="M37.168 11.155C36.7211 11.2238 35.6641 11.4988 35.6641 11.5503C35.6641 11.5675 35.9133 11.8855 36.2141 12.2636C37.1594 13.4324 37.7094 14.7988 37.8555 16.3371C37.907 16.8355 37.9328 16.9214 38.0531 16.8699C38.457 16.7066 39.4023 16.5691 40.1156 16.5691C41.0695 16.5691 42.0234 16.7496 42.8227 17.0847L43.407 17.3253L43.5273 17.1449C43.9141 16.5519 44.0172 16.1308 43.9828 15.3316C43.957 14.6699 43.9141 14.4808 43.6992 14.0941C43.3984 13.5441 42.3414 12.5128 41.6281 12.0746C40.2875 11.2667 38.6719 10.9316 37.168 11.155Z" fill="#333333"/>
<path d="M32.957 12.0914C32.1063 12.5812 31.3242 13.4921 30.8516 14.532C30.5336 15.2367 30.4219 15.821 30.4219 16.732V17.4882L31.0063 17.8578C31.7453 18.339 32.6992 19.2929 33.1289 20.0062C33.318 20.3156 33.593 20.8828 33.7391 21.2781L34.0055 21.9914L34.4437 21.6218C35.2945 20.9171 35.9047 19.9374 36.1883 18.8203C36.4203 17.9179 36.4375 16.1562 36.2313 15.3656C35.8875 14.0851 34.9938 12.839 33.9281 12.1515C33.6617 11.9796 33.4297 11.8421 33.4125 11.8421C33.3953 11.8421 33.1977 11.9539 32.957 12.0914Z" fill="#333333"/>
<path d="M3.95312 12.8479C3.95312 13.2776 4.29688 14.4463 4.60625 15.1081C4.95 15.8385 5.58594 16.8268 5.71484 16.8268C5.76641 16.8268 6.54844 16.0791 7.46797 15.1596L9.13516 13.4924L8.97188 13.0541L8.81719 12.6159H6.38516H3.95312V12.8479Z" fill="#333333"/>
<path d="M14.6092 13.0195L14.4287 13.4234L15.967 14.9617L17.4967 16.4914L17.9693 16.3109C18.3904 16.1476 18.4678 16.0789 18.7084 15.6406C19.1295 14.8757 19.4475 13.939 19.585 13.0281L19.6537 12.6156H17.2217H14.7896L14.6092 13.0195Z" fill="#333333"/>
<path d="M29.2185 13.8363C29.0981 13.8793 25.6177 15.134 21.4841 16.6121C17.3505 18.0902 12.1685 19.9465 9.96846 20.7371C7.76846 21.5277 5.74033 22.2496 5.45674 22.3527L4.94971 22.5246L5.24189 22.6535C7.74268 23.7277 8.98877 24.6816 9.68486 26.0652C10.1403 26.9504 10.2692 28.1621 10.02 29.116C9.95127 29.3738 9.9083 29.5972 9.91689 29.6058C9.95986 29.6488 24.0966 24.5699 24.1224 24.5097C24.131 24.4668 23.9419 24.2777 23.7013 24.0972C23.1341 23.659 22.4294 22.791 22.0513 22.0777C21.4583 20.9519 21.1489 19.6027 21.3552 19.1043C21.5614 18.5886 22.9622 17.4972 23.9505 17.0761C25.1794 16.5519 26.9497 16.4058 28.2216 16.741C28.5997 16.8355 28.9091 16.9129 28.9177 16.9129C28.9263 16.9129 28.9606 16.5777 28.9864 16.1566C29.0294 15.5379 29.2528 14.5925 29.5364 13.8449C29.588 13.716 29.5106 13.7074 29.2185 13.8363Z" fill="#333333"/>
<path d="M8.42188 16.1908L6.74609 17.8666L7.08984 18.1587C7.50234 18.5111 8.81719 19.1986 9.22109 19.2759C9.42734 19.3189 9.71094 19.2587 10.2352 19.0783L10.957 18.8205L10.9828 16.8181L11 14.8072L10.5789 14.6525C10.3469 14.5752 10.1492 14.5064 10.132 14.5064C10.1063 14.5064 9.34141 15.2627 8.42188 16.1908Z" fill="#333333"/>
<path d="M12.9164 14.6612L12.5469 14.7987V16.5002C12.5469 17.437 12.5813 18.2018 12.6242 18.2018C12.7102 18.2018 15.8383 17.0846 15.8984 17.0331C15.95 16.9729 13.4664 14.5065 13.3633 14.5151C13.3203 14.5237 13.1141 14.5924 12.9164 14.6612Z" fill="#333333"/>
<path d="M25.0937 18.2277C24.346 18.4511 23.6413 18.8378 23.1171 19.3019L22.7476 19.6285L22.8937 20.23C23.3491 22.0175 24.8015 23.5128 26.6577 24.0972L27.1476 24.2433L27.689 23.7964C28.3593 23.2378 29.7429 22.5589 30.5679 22.3785C30.9116 22.3011 31.4788 22.241 31.8312 22.241C32.3124 22.241 32.4843 22.2152 32.4843 22.1292C32.4843 21.8886 31.8054 20.6253 31.4187 20.1613C30.6968 19.2761 29.4249 18.5371 27.9726 18.1675C27.2077 17.9613 25.8929 17.9957 25.0937 18.2277Z" fill="#333333"/>
<path d="M38.5599 18.2362C38.1903 18.3479 37.8552 18.4682 37.8208 18.5112C37.7778 18.5542 37.6833 18.855 37.606 19.1901C37.2794 20.5479 36.3513 21.9659 35.1997 22.8682L34.6411 23.3151L34.8302 23.4698C35.2169 23.7792 36.2396 24.226 36.8669 24.355C38.0872 24.6128 39.8661 24.3378 41.1638 23.6846C42.0231 23.2464 43.0372 22.2065 43.4755 21.3042C43.6646 20.9175 43.8708 20.376 43.9224 20.1096L44.0341 19.637L43.6216 19.2675C43.1489 18.8292 42.195 18.3479 41.4646 18.1589C40.6825 17.9612 39.3763 17.9956 38.5599 18.2362Z" fill="#333333"/>
<path d="M1.4093 23.8135C0.893679 24.0627 0.412429 24.5182 0.171804 24.9909C-0.0688207 25.4721 -0.060227 26.2971 0.197586 26.7526C0.756179 27.7494 2.44055 27.5604 3.01634 26.4432C3.26555 25.9448 3.4804 25.7643 3.80696 25.7643C4.27102 25.7643 4.67493 26.2799 4.52024 26.6752C4.47727 26.7869 4.51165 26.8041 4.70071 26.7612C5.49134 26.5893 5.71477 26.5979 5.97259 26.8213C6.5054 27.2682 6.20462 27.9901 5.43118 28.119C4.40852 28.2823 4.36555 29.7604 5.37102 30.3963C6.17024 30.9034 7.01243 30.826 7.7343 30.1815C8.2929 29.6744 8.60227 29.0299 8.66243 28.2651C8.76555 26.7182 7.82024 25.4893 5.71477 24.4666C4.54602 23.8909 3.84134 23.7018 2.74993 23.6502C1.92493 23.6073 1.81321 23.6244 1.4093 23.8135Z" fill="#333333"/>
<path d="M30.7656 23.8307C29.657 24.1057 28.6773 24.7244 27.8695 25.6697C26.675 27.0705 26.2539 28.119 26.2539 29.7174C26.2539 30.5252 26.2883 30.8174 26.4602 31.3244C26.7523 32.2354 26.7695 32.244 27.5602 32.2783C29.3734 32.3557 31.1781 31.4361 32.2266 29.8893L32.5445 29.4166L32.3039 28.8408C31.9 27.8526 31.7711 27.0705 31.8227 25.9447C31.8484 25.2744 31.9258 24.7674 32.0461 24.3893C32.1406 24.0799 32.2266 23.8049 32.2266 23.7619C32.2266 23.6588 31.2812 23.7018 30.7656 23.8307Z" fill="#333333"/>
<path d="M33.438 24.7933C33.12 25.9449 33.2575 27.4918 33.7732 28.5746C34.9075 30.9894 36.9528 32.3816 39.2044 32.2785C40.0036 32.2441 40.0466 32.2097 40.313 31.3504C40.8286 29.7261 40.5192 27.8441 39.5052 26.4261L39.1099 25.8761L38.2763 25.9191C36.8239 25.9965 35.4919 25.6269 34.2458 24.8105C33.8849 24.5785 33.5841 24.3894 33.5755 24.3894C33.5583 24.3894 33.4982 24.5699 33.438 24.7933Z" fill="#333333"/>
<path d="M16.7148 30.1041C16.543 30.2674 16.5 30.4049 16.5 30.7143C16.5 31.101 16.5172 31.1354 17.2648 31.8745C18.0039 32.6221 18.0383 32.6393 18.425 32.6393C18.9664 32.6393 19.25 32.3729 19.25 31.8573C19.25 31.5049 19.207 31.4448 18.4508 30.6885C17.6945 29.9323 17.6344 29.8893 17.282 29.8893C17.0156 29.8893 16.8695 29.9409 16.7148 30.1041Z" fill="#333333"/>
<path d="M20.8227 30.6884C20.0492 31.4618 20.0234 31.5048 20.0234 31.8743C20.0234 32.3212 20.2469 32.6048 20.6852 32.6907C21.0633 32.7681 21.3555 32.579 22.0945 31.8056C22.7734 31.0923 22.8766 30.886 22.7563 30.4306C22.6617 30.0782 22.3953 29.8891 21.9656 29.8891C21.6477 29.8891 21.5617 29.9493 20.8227 30.6884Z" fill="#333333"/>
<path d="M17.3077 34.1947C16.8694 34.6244 16.4913 35.0713 16.4569 35.1916C16.3795 35.5182 16.5686 35.9736 16.8436 36.1197C17.3764 36.3947 17.6858 36.2572 18.5881 35.3119C19.2069 34.6674 19.2499 34.59 19.2499 34.2549C19.2413 33.7049 18.9405 33.4127 18.3819 33.4127C18.1499 33.4127 17.978 33.5416 17.3077 34.1947Z" fill="#333333"/>
<path d="M20.2726 33.662C19.9891 33.9456 19.9461 34.3066 20.1437 34.6847C20.3156 35.0113 21.4156 36.0511 21.7078 36.1628C22.3695 36.4206 23.0141 35.7503 22.7391 35.0972C22.6703 34.9511 22.2922 34.5128 21.8883 34.1175C21.2437 33.4902 21.1234 33.4128 20.8398 33.4128C20.6078 33.4128 20.4617 33.473 20.2726 33.662Z" fill="#333333"/>
</svg>
