<svg width="38" height="41" viewBox="0 0 38 41" fill="none" xmlns="http://www.w3.org/2000/svg">
<path d="M20.9086 0.144298C20.8398 0.230235 20.7281 0.488048 20.6766 0.728673C20.4273 1.75992 19.525 2.66227 18.5453 2.87711C18.2016 2.94586 18.0039 3.20367 18.0039 3.5732C18.0039 3.90836 18.2016 4.08883 18.743 4.25211C19.6023 4.50992 20.4531 5.42086 20.668 6.31461C20.7883 6.77867 20.8656 6.89899 21.1234 7.02789C21.3039 7.11383 21.3984 7.11383 21.6305 7.0193C21.8883 6.91617 21.9313 6.83024 22.1117 6.23727C22.2836 5.6443 22.3609 5.5068 22.8422 5.03414C23.2719 4.59586 23.4953 4.44117 23.9852 4.2607C24.6727 4.00289 24.8789 3.74508 24.7156 3.34117C24.6125 3.06617 24.4922 2.97164 23.9938 2.80836C23.0742 2.49898 22.3695 1.74273 22.0859 0.754454C22.0086 0.479454 21.8883 0.19586 21.8195 0.12711C21.6391 -0.0533586 21.0719 -0.0361714 20.9086 0.144298ZM22.1805 3.2982L22.4469 3.52164L21.9227 4.05445L21.3984 4.59586L20.8656 4.06305L20.3328 3.53024L20.8656 2.98883L21.3984 2.43883L21.6562 2.7568C21.8023 2.92867 22.0344 3.17789 22.1805 3.2982Z" fill="#333333"/>
<path d="M6.66875 5.47261C6.48828 6.16011 6.31641 7.35464 6.31641 7.9648C6.31641 8.97886 6.77188 10.5515 7.33906 11.514C8.05234 12.7085 9.29844 13.7742 10.45 14.1781C11.043 14.3843 12.5898 14.5218 12.5898 14.3757C12.5898 14.3242 12.2547 14.0406 11.8508 13.7398C10.4672 12.7171 9.35 11.3593 8.59375 9.78667C7.98359 8.49761 8.00938 8.34292 8.67969 9.32261C9.91719 11.1531 10.957 12.339 11.9883 13.1039C12.65 13.5851 12.8648 13.6109 12.7961 13.207C12.3578 10.7062 11.55 9.39995 9.23828 7.51792C8.17266 6.64136 7.34766 5.84214 7.05547 5.38667C6.84922 5.07729 6.77188 5.09448 6.66875 5.47261Z" fill="#333333"/>
<path d="M28.8836 7.62954C26.8641 9.6061 26.4516 9.85532 24.6383 10.2249C22.782 10.603 21.2695 11.7889 20.4445 13.5334C20.2812 13.86 20.1438 14.2295 20.1352 14.3499L20.1094 14.5647L23.7789 14.5905L27.4398 14.6077L27.5773 14.2038C27.6461 13.9717 27.7836 13.4389 27.8781 13.0006C28.0586 12.1499 28.4023 11.385 28.875 10.7491C29.0297 10.5342 29.7516 9.76938 30.4648 9.0647C31.1781 8.35142 31.8227 7.67251 31.8914 7.5436C31.9602 7.4147 32.0117 7.14829 32.0117 6.95063C32.0117 6.66704 31.9602 6.54673 31.7195 6.3061C31.4617 6.04829 31.3758 6.01392 30.9805 6.01392H30.5336L28.8836 7.62954Z" fill="#333333"/>
<path d="M15.7867 8.03344C15.5375 8.10219 15.2109 8.2225 15.0648 8.29985C14.6008 8.54047 13.9563 9.21079 13.6813 9.75219C13.4234 10.242 13.4062 10.3194 13.4062 11.2131C13.4062 12.0553 13.432 12.21 13.6383 12.6483C14.8242 15.1834 18.468 15.192 19.6539 12.6569C20.4789 10.9038 19.6539 8.84985 17.8492 8.13657C17.2992 7.92172 16.3539 7.87016 15.7867 8.03344ZM17.0844 9.71782C17.7977 9.91547 18.3305 10.7147 18.2359 11.4366C18.1328 12.2014 17.4281 12.8202 16.6633 12.8202C15.2711 12.8202 14.5578 11.11 15.5461 10.1475C15.8125 9.88969 16.3367 9.63188 16.6289 9.62329C16.6977 9.62329 16.9039 9.66625 17.0844 9.71782Z" fill="#333333"/>
<path d="M3.24001 15.424C3.14548 15.5443 3.04236 15.7849 3.00798 15.9568C2.83611 16.8678 2.01111 17.7443 1.03142 18.0451C0.610324 18.174 0.421261 18.3373 0.352511 18.6123C0.292355 18.8271 0.498605 19.3342 0.644699 19.3342C0.928293 19.3342 1.73611 19.7467 2.11423 20.0904C2.5697 20.4943 3.05095 21.3365 3.05095 21.706C3.05095 21.9724 3.30876 22.2474 3.60954 22.3076C3.97048 22.3763 4.30564 22.1013 4.38298 21.6803C4.46892 21.2162 4.91579 20.3998 5.25954 20.1076C5.57751 19.824 6.32517 19.4201 6.51423 19.4201C6.76345 19.4201 7.09001 19.0678 7.09001 18.8099C7.09001 18.4232 6.96111 18.2428 6.60017 18.1224C5.44001 17.7529 4.66657 16.9709 4.42595 15.9396C4.36579 15.699 4.24548 15.4412 4.15095 15.3553C3.89314 15.1318 3.44626 15.1662 3.24001 15.424ZM4.23689 18.2256L4.75251 18.7498L4.22829 19.2826L3.70407 19.8068L3.18845 19.2912L2.66423 18.7756L3.17986 18.2428C3.46345 17.9506 3.70407 17.7099 3.71267 17.7099C3.72126 17.7013 3.96189 17.9334 4.23689 18.2256Z" fill="#333333"/>
<path d="M8.16416 16.0429C8.31885 16.8937 9.27275 18.8445 10.072 19.9531C10.7165 20.8554 11.7478 21.8781 12.3493 22.239C12.6157 22.3937 13.1142 22.6257 13.4665 22.7546L14.0938 22.9867L18.6485 23.0124C23.8048 23.0382 23.9079 23.0296 25.1626 22.4023C26.4087 21.7835 27.8954 20.082 28.8493 18.1827C29.1759 17.5382 29.7774 15.9913 29.7774 15.8109C29.7774 15.7593 25.7298 15.7249 18.9407 15.7249H8.104L8.16416 16.0429Z" fill="#333333"/>
<path d="M33.6702 18.3028C33.5929 18.3887 33.4725 18.6723 33.4124 18.9215C33.1718 19.8583 32.4585 20.5887 31.4014 20.9754C30.8343 21.1817 30.6452 21.4653 30.7827 21.8778C30.8772 22.1528 30.9374 22.1958 31.5991 22.4278C32.2694 22.6684 32.9139 23.27 33.2233 23.9317C33.3608 24.2153 33.4725 24.5333 33.4725 24.6278C33.4725 24.9458 33.7561 25.2122 34.0999 25.2122C34.521 25.2122 34.7186 25.0059 34.8389 24.4473C35.0452 23.545 35.896 22.6426 36.7983 22.3762C37.0561 22.3075 37.3139 22.1614 37.3827 22.0583C37.6663 21.6458 37.4514 21.1215 36.9358 21.0012C35.9819 20.7692 35.1054 19.884 34.8475 18.9043C34.6843 18.2856 34.5554 18.1309 34.16 18.1309C33.9194 18.1309 33.7647 18.1825 33.6702 18.3028ZM34.6413 22.1958L34.1171 22.7286L33.6014 22.1958L33.0858 21.6629L33.5757 21.1731C33.8507 20.8981 34.0741 20.6489 34.0741 20.6059C34.0741 20.5629 34.3147 20.7864 34.6155 21.0958L35.1569 21.6629L34.6413 22.1958Z" fill="#333333"/>
<path d="M15.0305 24.2241C15.0133 24.2413 14.9961 24.6452 14.9961 25.1092V25.9514L18.932 25.9342L22.8594 25.9084V25.0663V24.2327L18.9664 24.2069C16.818 24.1983 15.0477 24.2069 15.0305 24.2241Z" fill="#333333"/>
<path d="M1.08281 28.0139C0.747656 28.0913 0.421094 28.3147 0.180469 28.6499C0.00859375 28.8819 0 28.985 0 32.053C0 35.1295 0.00859375 35.2241 0.180469 35.4647C0.275 35.5936 0.48125 35.7913 0.635938 35.8944C0.910938 36.0834 0.910938 36.0834 7.02969 36.1178C13.8961 36.1522 13.7672 36.1436 15.0734 36.7881C15.9844 37.235 16.8266 38.0256 17.8234 39.3577L18.5711 40.3459H18.9492H19.3273L20.075 39.3577C21.0719 38.0256 21.9141 37.235 22.825 36.7881C24.1313 36.1436 24.0023 36.1522 30.8688 36.1178C36.9875 36.0834 36.9875 36.0834 37.2625 35.8944C37.4172 35.7913 37.6234 35.5936 37.718 35.4647C37.8898 35.2241 37.8984 35.1295 37.8984 32.053C37.8984 28.985 37.8898 28.8819 37.718 28.6499C37.4688 28.3061 37.1594 28.0999 36.7727 28.0139C36.3086 27.9022 23.418 27.9108 22.3953 28.0139C21.1063 28.1514 20.1609 28.6756 19.4133 29.6725C19.1984 29.9647 18.9836 30.2053 18.9492 30.2053C18.9148 30.2053 18.7 29.9647 18.4852 29.6725C17.7375 28.6756 16.7922 28.1514 15.5031 28.0139C14.5406 27.9108 1.5125 27.9108 1.08281 28.0139ZM16.2164 29.535C16.7922 29.8014 17.3938 30.3944 17.9695 31.2795C18.7859 32.5256 19.1125 32.5256 19.9289 31.2795C20.5047 30.3944 21.1063 29.8014 21.682 29.535L22.0859 29.3459H29.3477H36.6094L36.6352 30.8155L36.6523 32.2936L30.2758 32.3366C26.0133 32.3624 23.6758 32.4139 23.2461 32.4827C21.725 32.7147 20.4531 33.3678 19.4734 34.4163L18.9492 34.9834L18.425 34.4163C17.4195 33.3506 16.1906 32.7233 14.6094 32.4741C14.2313 32.4139 11.6273 32.3624 7.63125 32.3366L1.24609 32.2936V30.8584C1.24609 30.0678 1.27188 29.3889 1.30625 29.3545C1.34063 29.3288 4.61484 29.3116 8.58516 29.3202C15.8039 29.3459 15.8125 29.3459 16.2164 29.535Z" fill="#333333"/>
</svg>
